<svg version="1.1" viewBox="0.0 0.0 60.0 60.0" fill="none" stroke="none" stroke-linecap="square" stroke-miterlimit="10" xmlns:xlink="http://www.w3.org/1999/xlink" xmlns="http://www.w3.org/2000/svg"><clipPath id="p.0"><path d="m0 0l60.0 0l0 60.0l-60.0 0l0 -60.0z" clip-rule="nonzero"/></clipPath><g clip-path="url(#p.0)"><path fill="#000000" fill-opacity="0.0" d="m0 0l60.0 0l0 60.0l-60.0 0z" fill-rule="evenodd"/><path fill="#000000" fill-opacity="0.0" d="m10.286089 35.427822l51.433075 0" fill-rule="evenodd"/><path stroke="#434343" stroke-width="3.0" stroke-linejoin="round" stroke-linecap="butt" d="m21.656088 35.427822l22.063074 0" fill-rule="evenodd"/><path fill="#434343" stroke="#434343" stroke-width="3.0" stroke-linecap="butt" d="m21.656088 40.36282l-9.869999 0l0 -9.869997l9.869999 0l0 9.869997z" fill-rule="nonzero"/><path fill="#434343" stroke="#434343" stroke-width="3.0" stroke-linecap="butt" d="m43.719162 40.38302l13.614292 -4.9551964l-13.614292 -4.9551983z" fill-rule="evenodd"/><path fill="#000000" fill-opacity="0.0" d="m30.52756 16.675177l0 37.16535" fill-rule="evenodd"/><path stroke="#434343" stroke-width="3.0" stroke-linejoin="round" stroke-linecap="butt" d="m30.52756 16.675177l0 37.16535" fill-rule="evenodd"/><path fill="#000000" fill-opacity="0.0" d="m30.52756 18.587927l30.992125 0" fill-rule="evenodd"/><path stroke="#434343" stroke-width="3.0" stroke-linejoin="round" stroke-linecap="butt" d="m30.52756 18.587927l12.992125 0" fill-rule="evenodd"/><path fill="#434343" stroke="#434343" stroke-width="3.0" stroke-linecap="butt" d="m43.519688 23.543123l13.614292 -4.9551964l-13.614292 -4.9551973z" fill-rule="evenodd"/><path fill="#000000" fill-opacity="0.0" d="m31.766405 52.047245l29.732283 0" fill-rule="evenodd"/><path stroke="#434343" stroke-width="3.0" stroke-linejoin="round" stroke-linecap="butt" d="m31.766405 52.047245l11.732283 0" fill-rule="evenodd"/><path fill="#434343" stroke="#434343" stroke-width="3.0" stroke-linecap="butt" d="m43.498688 57.00244l13.614292 -4.9551964l-13.614292 -4.9551964z" fill-rule="evenodd"/></g></svg>